<?xml version="1.0" encoding="UTF-8"?>
<svg version="1.1" xmlns="http://www.w3.org/2000/svg" width="256" height="256">
<path d="M0 0 C2.18955243 -0.00524539 4.37910261 -0.0115252 6.56864929 -0.01878357 C11.12131519 -0.02911589 15.67366698 -0.02472071 20.22631836 -0.01000977 C26.06634795 0.00731635 31.9054063 -0.01652405 37.74532795 -0.05149937 C42.24998005 -0.07340192 46.75439606 -0.07205174 51.2590847 -0.06373405 C53.41412624 -0.06291347 55.56918491 -0.06979721 57.72417641 -0.08450508 C60.72079401 -0.1018525 63.71561435 -0.08749877 66.7121582 -0.06469727 C68.04685905 -0.08223557 68.04685905 -0.08223557 69.40852356 -0.10012817 C71.68291514 -0.06477195 73.68562691 -0.0075005 75.88671875 0.56640625 C77.96012878 3.10585022 77.96012878 3.10585022 78.88671875 5.56640625 C75.70967973 10.54221002 72.13743586 15.07446405 68.38671875 19.62890625 C67.25116748 21.01551478 66.11574771 22.40223101 64.98046875 23.7890625 C64.23313477 24.69797241 64.23313477 24.69797241 63.47070312 25.62524414 C61.78966604 27.6135509 61.78966604 27.6135509 60.21154785 30.14849854 C57.88671875 32.56640625 57.88671875 32.56640625 54.79101562 33.19218445 C52.96666992 33.19312859 52.96666992 33.19312859 51.10546875 33.1940918 C50.0947506 33.20499847 50.0947506 33.20499847 49.06361389 33.21612549 C46.83744702 33.2347126 44.61288655 33.21864247 42.38671875 33.203125 C40.82933121 33.21117176 39.27195468 33.22169371 37.71459961 33.23457336 C33.6091306 33.26314563 29.50416567 33.26369931 25.39862061 33.25671387 C18.85711953 33.24940226 12.3157839 33.28110777 5.77441406 33.31916237 C3.50573678 33.32790715 1.23742552 33.32275088 -1.03125 33.31559753 C-17.88047066 33.3230717 -32.65839702 35.3281287 -45.11328125 47.56640625 C-49.70232619 52.68912926 -53.89885302 58.13575113 -58.11328125 63.56640625 C-59.05113471 64.76246319 -59.98988887 65.95781462 -60.9296875 67.15234375 C-62.26412737 68.84912296 -63.59771753 70.54649244 -64.92700195 72.24731445 C-68.64575011 76.99999296 -72.43244654 81.69576606 -76.23828125 86.37890625 C-77.09196289 87.42981445 -77.09196289 87.42981445 -77.96289062 88.50195312 C-81.97788558 93.43101058 -81.97788558 93.43101058 -83.11328125 94.56640625 C-85.69517571 94.667321 -88.24974625 94.70612124 -90.83203125 94.69921875 C-91.99164368 94.70065384 -91.99164368 94.70065384 -93.17468262 94.70211792 C-94.81225669 94.70279966 -96.44983344 94.70094582 -98.08740234 94.69677734 C-100.60260046 94.69142896 -103.11761998 94.69672251 -105.6328125 94.703125 C-107.22005248 94.70246422 -108.80729235 94.70118305 -110.39453125 94.69921875 C-111.15181519 94.70124298 -111.90909912 94.70326721 -112.68933105 94.70535278 C-117.99832993 94.68135757 -117.99832993 94.68135757 -119.11328125 93.56640625 C-119.61901371 90.18188901 -119.74533884 87.64385719 -117.97412109 84.62451172 C-116.32260877 82.50908554 -114.59131071 80.50305005 -112.80078125 78.50390625 C-111.50251055 76.99468908 -110.20565171 75.48425633 -108.91015625 73.97265625 C-108.26369141 73.22757812 -107.61722656 72.4825 -106.95117188 71.71484375 C-104.3872349 68.71768044 -101.96172565 65.62445646 -99.55078125 62.50390625 C-95.09963737 56.7864107 -90.54839407 51.15641856 -85.9621582 45.546875 C-82.80426307 41.67587641 -79.7007288 37.7701423 -76.64428711 33.81860352 C-56.53136724 7.85935132 -31.85827056 -0.0936064 0 0 Z " fill="#EF2E0D" transform="translate(119.11328125,80.43359375)"/>
<path d="M0 0 C0.75728394 0.00202423 1.51456787 0.00404846 2.2947998 0.00613403 C3.06787476 0.00517731 3.84094971 0.00422058 4.63745117 0.00323486 C6.27502524 0.00255313 7.91260199 0.00440697 9.5501709 0.00857544 C12.06536901 0.01392382 14.58038854 0.00863027 17.09558105 0.00222778 C18.68282103 0.00288857 20.2700609 0.00416973 21.8572998 0.00613403 C22.61458374 0.0041098 23.37186768 0.00208557 24.15209961 0 C29.46109849 0.02399522 29.46109849 0.02399522 30.5760498 1.13894653 C31.08178227 4.52346378 31.2081074 7.06149559 29.43688965 10.08084106 C27.78537732 12.19626725 26.05407927 14.20230273 24.2635498 16.20144653 C22.9652791 17.7106637 21.66842026 19.22109645 20.3729248 20.73269653 C19.72645996 21.47777466 19.07999512 22.22285278 18.41394043 22.99050903 C15.85000345 25.98767235 13.42449421 29.08089633 11.0135498 32.20144653 C7.09667658 37.23267127 3.10804133 42.19953538 -0.9239502 47.13894653 C-5.42865238 52.65864396 -9.86690825 58.22316599 -14.25109863 63.83889771 C-18.34752971 69.07248258 -22.53542809 74.22949966 -26.74621582 79.37136841 C-27.25346191 79.992052 -27.76070801 80.6127356 -28.2833252 81.25222778 C-28.80837646 81.87009155 -29.33342773 82.48795532 -29.87438965 83.12454224 C-31.5069599 85.13445914 -31.5069599 85.13445914 -32.74499512 87.59671021 C-34.42283267 90.45367517 -35.72985916 92.18309111 -38.4239502 94.13894653 C-44.39801756 95.30928681 -50.18065823 95.07783732 -56.2364502 94.82644653 C-57.87375733 94.79842099 -59.51113613 94.77429507 -61.14855957 94.75418091 C-62.70527237 94.72310207 -64.26192343 94.68871492 -65.81848145 94.65066528 C-66.55178177 94.63275436 -67.28508209 94.61484344 -68.04060364 94.59638977 C-73.18581558 94.37708114 -73.18581558 94.37708114 -75.4239502 92.13894653 C-76.03173017 89.45012792 -75.84362605 87.81054507 -74.37463379 85.45974731 C-72.84443663 83.48476861 -71.24669828 81.59037708 -69.6114502 79.70144653 C-68.40595472 78.26614527 -67.20154488 76.82993156 -65.99816895 75.39285278 C-65.39279297 74.67629517 -64.78741699 73.95973755 -64.16369629 73.22146606 C-61.67966787 70.24802199 -59.29836112 67.20009384 -56.9239502 64.13894653 C-52.44399272 58.3972834 -47.86434346 52.74196363 -43.2598877 47.09988403 C-39.7686484 42.81442917 -36.32580948 38.49561547 -32.9239502 34.13894653 C-27.85336468 27.64636211 -22.66481763 21.25388192 -17.45910645 14.86941528 C-14.21539338 10.88955477 -11.00883981 6.88127611 -7.8145752 2.86160278 C-5.32144811 -0.22679341 -3.99524029 0.01805739 0 0 Z " fill="#EF2D0D" transform="translate(225.4239501953125,80.86105346679688)"/>
<path d="M0 0 C1.22267075 0.00091644 2.44534149 0.00183289 3.70506287 0.0027771 C6.26736374 0.00878042 8.82965869 0.02442668 11.3918457 0.04931641 C15.32854766 0.08612407 19.26431476 0.0903332 23.20117188 0.08984375 C25.69662277 0.09966478 28.19206729 0.11131732 30.6875 0.125 C31.86760147 0.12722565 33.04770294 0.12945129 34.26356506 0.13174438 C35.89182472 0.15088394 35.89182472 0.15088394 37.55297852 0.17041016 C38.51019302 0.17803375 39.46740753 0.18565735 40.45362854 0.19351196 C42.74609375 0.4609375 42.74609375 0.4609375 44.74609375 2.4609375 C45.39923785 6.54308811 44.99338255 8.1027324 42.62109375 11.5390625 C41.67695163 12.60904573 40.71777109 13.66589606 39.74609375 14.7109375 C38.73577438 15.84658556 37.72667119 16.98331669 36.71875 18.12109375 C36.21617676 18.68070801 35.71360352 19.24032227 35.19580078 19.81689453 C32.43351464 22.94947029 29.88718125 26.25469121 27.3046875 29.53515625 C25.74609375 31.4609375 25.74609375 31.4609375 23.74609375 33.4609375 C20.74023438 33.57348633 20.74023438 33.57348633 16.90234375 33.41796875 C1.26937227 32.13037961 1.26937227 32.13037961 -12.52734375 37.37890625 C-15.08008818 40.45516944 -16.67363663 43.80963131 -18.25390625 47.4609375 C-22.8570196 49.76249417 -29.65244302 48.77249461 -34.76635742 48.81103516 C-36.3814126 48.82761984 -37.99639364 48.85494336 -39.61108398 48.89306641 C-41.93902654 48.94774085 -44.26525262 48.96968893 -46.59375 48.984375 C-47.31570053 49.00704437 -48.03765106 49.02971375 -48.78147888 49.05307007 C-50.82397461 49.04443359 -50.82397461 49.04443359 -54.25390625 48.4609375 C-56.23266602 45.92822266 -56.23266602 45.92822266 -57.25390625 43.4609375 C-54.14359246 38.59918488 -50.67309072 34.16177381 -47.00390625 29.7109375 C-45.8380308 28.29078382 -44.67266495 26.87021164 -43.5078125 25.44921875 C-42.94723145 24.76553223 -42.38665039 24.0818457 -41.80908203 23.37744141 C-39.81182297 20.91614099 -37.87933815 18.406576 -35.94140625 15.8984375 C-25.9577586 3.52287427 -15.8068321 -0.19551058 0 0 Z " fill="#F02D0E" transform="translate(115.25390625,126.5390625)"/>
<path d="M0 0 C3.0625 0.51953125 3.0625 0.51953125 4.0625 1.51953125 C4.56823246 4.90404849 4.69455759 7.44208031 2.92333984 10.46142578 C1.27182752 12.57685196 -0.45947054 14.58288745 -2.25 16.58203125 C-3.5482707 18.09124842 -4.84512954 19.60168117 -6.140625 21.11328125 C-6.78708984 21.85835937 -7.43355469 22.6034375 -8.09960938 23.37109375 C-10.66354635 26.36825706 -13.0890556 29.46148104 -15.5 32.58203125 C-19.41687322 37.61325599 -23.40550848 42.5801201 -27.4375 47.51953125 C-31.94220218 53.03922867 -36.38045806 58.60375071 -40.76464844 64.21948242 C-43.23813025 67.37959344 -45.73607289 70.51733945 -48.265625 73.6328125 C-48.82958984 74.32761719 -49.39355469 75.02242188 -49.97460938 75.73828125 C-51.108261 77.12399908 -52.25010851 78.50305577 -53.40039062 79.875 C-55.7523968 82.69852342 -57.81402388 85.29286437 -59.578125 88.53125 C-61.09032533 91.29927187 -62.39485003 92.66598473 -64.9375 94.51953125 C-67.36694336 95.00415039 -67.36694336 95.00415039 -70.02734375 95.0546875 C-70.97931641 95.0753125 -71.93128906 95.0959375 -72.91210938 95.1171875 C-77.26630738 95.06552266 -81.59670692 94.86079774 -85.9375 94.51953125 C-82.30217247 89.64426523 -78.63630849 84.79833656 -74.875 80.01953125 C-74.4109375 79.42914063 -73.946875 78.83875 -73.46875 78.23046875 C-69.29286219 72.93584176 -65.03839713 67.70676663 -60.77514648 62.48242188 C-57.28321093 58.19641842 -53.83984367 53.87691875 -50.4375 49.51953125 C-46.49554596 44.4710638 -42.48699578 39.48212531 -38.4375 34.51953125 C-34.78764017 30.04280052 -31.14728183 25.56002441 -27.57128906 21.02392578 C-26.65671648 19.86441297 -25.73686817 18.70903992 -24.81152344 17.55810547 C-22.60586132 14.7869918 -20.59144115 12.02717522 -18.78125 8.98046875 C-13.5204973 0.59859785 -9.51037898 -0.70761748 0 0 Z " fill="#D40000" transform="translate(251.9375,80.48046875)"/>
</svg>
